<svg width="78" height="57" viewBox="0 0 78 57" fill="none" xmlns="http://www.w3.org/2000/svg">
<path d="M78 35.1562C78 46.8105 68.6504 56.25 57.1071 56.25H55.7143C52.6326 56.25 50.1429 53.7363 50.1429 50.625C50.1429 47.5137 52.6326 45 55.7143 45H57.1071C62.4871 45 66.8571 40.5879 66.8571 35.1562V33.75H55.7143C49.5683 33.75 44.5714 28.7051 44.5714 22.5V11.25C44.5714 5.04492 49.5683 0 55.7143 0H66.8571C73.0031 0 78 5.04492 78 11.25V16.875V22.5V35.1562ZM33.4286 35.1562C33.4286 46.8105 24.079 56.25 12.5357 56.25H11.1429C8.06116 56.25 5.57143 53.7363 5.57143 50.625C5.57143 47.5137 8.06116 45 11.1429 45H12.5357C17.9156 45 22.2857 40.5879 22.2857 35.1562V33.75H11.1429C4.99687 33.75 0 28.7051 0 22.5V11.25C0 5.04492 4.99687 0 11.1429 0H22.2857C28.4317 0 33.4286 5.04492 33.4286 11.25V16.875V22.5V35.1562Z" fill="#252F45"/>
</svg>
