<svg width="151" height="38" viewBox="0 0 151 38" fill="none" xmlns="http://www.w3.org/2000/svg">
<path d="M38.2432 8.12571C33.4006 -2.70857 18.0264 -2.70857 13.1889 8.12571L0 37.6327H17.2723C22.7151 37.6327 27.6449 34.4368 29.8661 29.4711H12.5938L16.8003 20.0578L20.6477 11.4499C21.9712 8.47967 24.6388 8.16162 25.7212 8.16162C26.8087 8.16162 29.466 8.4848 30.7946 11.4499L34.3599 19.4268L34.5753 18.9395L38.2483 10.7214C38.6125 9.90065 38.6125 8.95162 38.2432 8.12571Z" fill="url(#paint0_linear_0_5866)"/>
<path d="M49.6665 15.8257C49.6665 16.6517 49.4972 17.4981 49.1278 18.324L42.223 33.7803L40.3712 37.9201C36.8418 37.9201 34.2461 35.0268 34.2461 31.8053C34.2461 30.9794 34.4205 30.1278 34.7899 29.3019L36.0159 26.5574L43.5517 9.70581C47.0759 9.71094 49.6665 12.6042 49.6665 15.8257Z" fill="url(#paint1_linear_0_5866)"/>
<path d="M49.6667 15.8257C49.6667 16.6517 49.4974 17.4981 49.1281 18.324L42.2233 33.7803C38.6016 33.6572 35.9648 30.6511 35.9648 27.3064C35.9648 27.0602 35.9802 26.8139 36.0059 26.5626L43.5417 9.71094C47.0761 9.71094 49.6667 12.6042 49.6667 15.8257Z" fill="url(#paint2_linear_0_5866)"/>
<path opacity="0.3" d="M22.0273 29.4712H29.2246C28.1268 30.1689 26.9058 30.5587 25.6285 30.5587C24.346 30.5587 23.1251 30.1689 22.0273 29.4712Z" fill="url(#paint3_linear_0_5866)"/>
<path d="M34.6269 17.5133C34.6269 18.0006 34.6064 18.4726 34.5705 18.9445L34.3551 19.4318L30.7898 11.4549C29.4612 8.48471 26.7988 8.16665 25.7164 8.16665C24.6339 8.16665 21.9715 8.48984 20.6429 11.4549L16.7955 20.0628C16.6827 19.242 16.6211 18.3905 16.6211 17.5184C16.6211 10.3109 20.648 4.47315 25.624 4.47315C30.6 4.46802 34.6269 10.3058 34.6269 17.5133Z" fill="url(#paint4_linear_0_5866)"/>
<path d="M25.2603 25.1363C27.4503 25.1363 29.2257 23.361 29.2257 21.171C29.2257 18.9809 27.4503 17.2056 25.2603 17.2056C23.0703 17.2056 21.2949 18.9809 21.2949 21.171C21.2949 23.361 23.0703 25.1363 25.2603 25.1363Z" fill="url(#paint5_linear_0_5866)"/>
<path d="M48.8306 9.71081C51.0206 9.71081 52.796 7.93544 52.796 5.74542C52.796 3.55539 51.0206 1.78003 48.8306 1.78003C46.6406 1.78003 44.8652 3.55539 44.8652 5.74542C44.8652 7.93544 46.6406 9.71081 48.8306 9.71081Z" fill="url(#paint6_linear_0_5866)"/>
<path d="M70.0969 28V9.75H73.6469V28H70.0969ZM77.9262 28V14.425H80.6762V20.25H80.4262C80.4262 18.8667 80.6095 17.7167 80.9762 16.8C81.3428 15.8667 81.8845 15.1667 82.6012 14.7C83.3345 14.2333 84.2428 14 85.3262 14H85.4762C87.0928 14 88.3178 14.525 89.1512 15.575C89.9845 16.6083 90.4012 18.1583 90.4012 20.225V28H86.9262V19.925C86.9262 19.0917 86.6845 18.4167 86.2012 17.9C85.7345 17.3833 85.0845 17.125 84.2512 17.125C83.4012 17.125 82.7095 17.3917 82.1762 17.925C81.6595 18.4417 81.4012 19.1417 81.4012 20.025V28H77.9262ZM99.0621 28.425C97.1954 28.425 95.7288 28.0333 94.6621 27.25C93.6121 26.45 93.0621 25.35 93.0121 23.95H96.1371C96.1871 24.4167 96.4454 24.8417 96.9121 25.225C97.3788 25.6083 98.1121 25.8 99.1121 25.8C99.9454 25.8 100.604 25.65 101.087 25.35C101.587 25.05 101.837 24.6417 101.837 24.125C101.837 23.675 101.645 23.3167 101.262 23.05C100.895 22.7833 100.262 22.6083 99.3621 22.525L98.1621 22.4C96.6454 22.2333 95.4788 21.8 94.6621 21.1C93.8454 20.4 93.4371 19.4667 93.4371 18.3C93.4371 17.3667 93.6704 16.5833 94.1371 15.95C94.6038 15.3167 95.2454 14.8417 96.0621 14.525C96.8954 14.1917 97.8454 14.025 98.9121 14.025C100.579 14.025 101.929 14.3917 102.962 15.125C103.995 15.8583 104.537 16.9333 104.587 18.35H101.462C101.429 17.8833 101.195 17.4833 100.762 17.15C100.329 16.8167 99.7038 16.65 98.8871 16.65C98.1538 16.65 97.5871 16.7917 97.1871 17.075C96.7871 17.3583 96.5871 17.725 96.5871 18.175C96.5871 18.6083 96.7454 18.9417 97.0621 19.175C97.3954 19.4083 97.9288 19.5667 98.6621 19.65L99.8621 19.775C101.462 19.9417 102.712 20.3833 103.612 21.1C104.529 21.8167 104.987 22.7833 104.987 24C104.987 24.9 104.737 25.6833 104.237 26.35C103.754 27 103.07 27.5083 102.187 27.875C101.304 28.2417 100.262 28.425 99.0621 28.425ZM114.383 28.475C113.183 28.475 112.124 28.2833 111.208 27.9C110.291 27.5167 109.516 27 108.883 26.35C108.249 25.6833 107.766 24.9333 107.433 24.1C107.116 23.2667 106.958 22.4 106.958 21.5V20.975C106.958 20.0417 107.124 19.1583 107.458 18.325C107.808 17.475 108.299 16.725 108.933 16.075C109.583 15.4083 110.366 14.8917 111.283 14.525C112.199 14.1417 113.233 13.95 114.383 13.95C115.533 13.95 116.566 14.1417 117.483 14.525C118.399 14.8917 119.174 15.4083 119.808 16.075C120.458 16.725 120.949 17.475 121.283 18.325C121.616 19.1583 121.783 20.0417 121.783 20.975V21.5C121.783 22.4 121.616 23.2667 121.283 24.1C120.966 24.9333 120.491 25.6833 119.858 26.35C119.224 27 118.449 27.5167 117.533 27.9C116.616 28.2833 115.566 28.475 114.383 28.475ZM114.383 25.5C115.233 25.5 115.949 25.3167 116.533 24.95C117.116 24.5667 117.558 24.0583 117.858 23.425C118.158 22.775 118.308 22.0417 118.308 21.225C118.308 20.3917 118.149 19.6583 117.833 19.025C117.533 18.375 117.083 17.8667 116.483 17.5C115.899 17.1167 115.199 16.925 114.383 16.925C113.566 16.925 112.858 17.1167 112.258 17.5C111.674 17.8667 111.224 18.375 110.908 19.025C110.591 19.6583 110.433 20.3917 110.433 21.225C110.433 22.0417 110.583 22.775 110.883 23.425C111.199 24.0583 111.649 24.5667 112.233 24.95C112.816 25.3167 113.533 25.5 114.383 25.5ZM123.301 28L129.526 9.75H135.326L141.726 28H138.076L132.651 12.175L133.926 12.725H130.801L132.101 12.175L126.851 28H123.301ZM127.651 23.15L128.776 20.15H136.176L137.276 23.15H127.651ZM144.812 28V14.425H148.287V28H144.812ZM142.912 17.025V14.425H148.287V17.025H142.912ZM146.087 12.8C145.403 12.8 144.895 12.625 144.562 12.275C144.245 11.9083 144.087 11.4583 144.087 10.925C144.087 10.3583 144.245 9.9 144.562 9.55C144.895 9.2 145.403 9.025 146.087 9.025C146.77 9.025 147.27 9.2 147.587 9.55C147.903 9.9 148.062 10.3583 148.062 10.925C148.062 11.4583 147.903 11.9083 147.587 12.275C147.27 12.625 146.77 12.8 146.087 12.8Z" fill="white"/>
<defs>
<linearGradient id="paint0_linear_0_5866" x1="0" y1="18.8173" x2="38.5218" y2="18.8173" gradientUnits="userSpaceOnUse">
<stop stop-color="#6B00D8"/>
<stop offset="1" stop-color="#DE568F"/>
</linearGradient>
<linearGradient id="paint1_linear_0_5866" x1="35.431" y1="40.8938" x2="42.7203" y2="21.8193" gradientUnits="userSpaceOnUse">
<stop stop-color="#6B00D8"/>
<stop offset="1" stop-color="#DE568F"/>
</linearGradient>
<linearGradient id="paint2_linear_0_5866" x1="35.9676" y1="21.7443" x2="49.6682" y2="21.7443" gradientUnits="userSpaceOnUse">
<stop stop-color="#6B00D8"/>
<stop offset="1" stop-color="#DE568F"/>
</linearGradient>
<linearGradient id="paint3_linear_0_5866" x1="22.0272" y1="30.0137" x2="29.2257" y2="30.0137" gradientUnits="userSpaceOnUse">
<stop stop-color="#6B00D8"/>
<stop offset="1" stop-color="#DE568F"/>
</linearGradient>
<linearGradient id="paint4_linear_0_5866" x1="40.6329" y1="7.35034" x2="16.4939" y2="17.1997" gradientUnits="userSpaceOnUse">
<stop stop-color="#6B00D8"/>
<stop offset="1" stop-color="#DE568F"/>
</linearGradient>
<linearGradient id="paint5_linear_0_5866" x1="21.2948" y1="21.1695" x2="29.2268" y2="21.1695" gradientUnits="userSpaceOnUse">
<stop stop-color="#6B00D8"/>
<stop offset="1" stop-color="#DE568F"/>
</linearGradient>
<linearGradient id="paint6_linear_0_5866" x1="44.864" y1="5.74393" x2="52.7961" y2="5.74393" gradientUnits="userSpaceOnUse">
<stop stop-color="#6B00D8"/>
<stop offset="1" stop-color="#DE568F"/>
</linearGradient>
</defs>
</svg>
