<?xml version="1.0" standalone="no"?>
<!DOCTYPE svg PUBLIC "-//W3C//DTD SVG 20010904//EN"
 "http://www.w3.org/TR/2001/REC-SVG-20010904/DTD/svg10.dtd">
<svg version="1.0" xmlns="http://www.w3.org/2000/svg"
 width="714.000000pt" height="714.000000pt" viewBox="0 0 714.000000 714.000000"
 preserveAspectRatio="xMidYMid meet">
<metadata>
Created by potrace 1.14, written by Peter Selinger 2001-2017
</metadata>
<g transform="translate(0.000000,714.000000) scale(0.100000,-0.100000)"
fill="#000000" stroke="none">
<path d="M3213 6114 c-144 -20 -355 -75 -438 -113 -11 -5 -59 -28 -108 -50
-230 -105 -454 -280 -637 -497 -53 -62 -170 -247 -213 -336 -25 -51 -197 -433
-382 -848 -186 -415 -348 -777 -360 -805 -13 -27 -62 -135 -108 -240 -47 -104
-96 -215 -110 -245 -27 -61 -30 -67 -146 -330 -45 -102 -91 -204 -101 -226
-10 -23 -66 -147 -123 -275 -101 -227 -180 -402 -217 -484 -10 -22 -36 -80
-58 -130 -22 -49 -49 -110 -60 -135 -81 -180 -117 -261 -133 -298 l-18 -42
1242 1 c1023 1 1259 4 1337 16 604 91 1108 443 1386 968 30 56 54 105 54 108
0 3 -520 6 -1156 6 -636 0 -1158 2 -1160 4 -4 4 18 58 73 177 14 30 43 96 65
145 22 50 50 113 63 140 13 28 59 131 103 231 44 99 89 200 100 225 12 24 98
217 192 429 95 212 180 403 190 425 10 22 39 87 64 144 26 57 55 122 66 145
10 22 55 124 100 225 105 235 130 278 222 372 206 209 560 268 842 140 183
-83 290 -203 396 -446 13 -27 44 -97 70 -155 26 -58 62 -139 80 -180 18 -41
45 -102 60 -135 42 -92 78 -173 125 -280 8 -16 29 -64 48 -105 18 -41 40 -90
48 -107 8 -18 16 -33 19 -33 3 1 34 67 69 148 35 81 77 173 92 204 15 31 24
59 21 62 -3 4 0 6 6 6 7 0 12 5 12 11 0 6 66 158 146 338 212 473 208 462 210
559 2 99 -10 142 -76 273 -143 286 -366 538 -622 705 -204 133 -456 234 -683
273 -33 5 -76 13 -95 16 -70 13 -404 12 -497 -1z"/>
<path d="M6490 5884 c-169 -33 -311 -139 -386 -289 -80 -163 -76 -344 11 -500
163 -290 542 -361 801 -151 324 262 229 781 -167 917 -63 21 -203 33 -259 23z"/>
<path d="M5851 4787 c-10 -23 -58 -130 -106 -237 -48 -107 -97 -217 -110 -245
-13 -27 -87 -193 -165 -368 -78 -175 -157 -352 -176 -393 -19 -41 -34 -76 -34
-79 0 -4 -17 -42 -85 -190 -17 -38 -112 -250 -210 -470 -97 -220 -188 -424
-202 -454 -32 -70 -66 -145 -68 -151 -1 -3 -7 -18 -15 -35 -117 -272 -72 -599
115 -834 79 -99 216 -202 330 -249 72 -29 214 -60 273 -58 l43 1 60 135 c33
74 69 155 81 180 36 79 63 138 208 465 79 176 153 343 165 370 13 28 89 199
170 380 81 182 158 355 172 385 14 30 41 91 60 135 49 111 71 161 100 225 118
258 189 424 205 479 29 95 34 301 9 396 -48 187 -115 303 -251 433 -30 29 -65
58 -76 65 -12 7 -46 27 -75 45 -70 42 -221 90 -306 98 -38 3 -74 7 -80 9 -7 3
-21 -14 -32 -38z"/>
<path d="M3262 3794 c-223 -65 -374 -254 -389 -485 -7 -102 6 -166 53 -264
156 -329 596 -403 854 -143 214 215 206 563 -17 770 -60 55 -155 106 -238 125
-70 16 -201 15 -263 -3z"/>
</g>
</svg>
